# xmcd
#
# Track frame offsets:
#	150
#	12399
#	21611
#	46319
#	57304
#	70615
#	82031
#	91916
#	104487
#	128084
#	149184
#	161421
#	175117
#	188740
#	200590
#
# Disc length: 2824
#
# Revision: 4
# Processed by: cddbd v1.5.1PL0 Copyright (c) Steve Scherf et al.
# Submitted via: CDex 1.40Beta8
# Normalized: r3:DSETVAR1,TDELIM( - )
#
DISCID=d50b060f
DTITLE=Various Artist - Blues Juke Box Hits (Volume 4 of 4)
DYEAR=1900
DGENRE=Blues
TTITLE0=Leadbelly - New York City
TTITLE1=Memphis Slim - John Henry
TTITLE2=Jimmy Witherspoon - See See Rider
TTITLE3=Ray Charles - Let's Have a Ball
TTITLE4=Bessie  Smith - Nobody Knows When You're Down and Out
TTITLE5=Linda Hayes - Take Me Back
TTITLE6=Jimmy Witherspoon - Have a Ball
TTITLE7=Jabo Williams - Pratt City Blues
TTITLE8=Lightnin' Hoopkins - Early in the Morning Blues
TTITLE9=Big Bill Broonzy - I Got Up One Morning Blues
TTITLE10=John Lee Hooker - Drugstore Woman
TTITLE11=Howlin' Wolf - I Walked from Dallas
TTITLE12=Leadbelly - Alabama Bound
TTITLE13=Sonny Terry - Harmonica Hop
TTITLE14=Memphis Slim - New Key to the Highway
EXTD=ID3G: 0
EXTT0=
EXTT1=
EXTT2=
EXTT3=
EXTT4=
EXTT5=
EXTT6=
EXTT7=
EXTT8=
EXTT9=
EXTT10=
EXTT11=
EXTT12=
EXTT13=
EXTT14=
PLAYORDER=
